
<svg width="17px" height="18px" viewBox="0 0 17 18" version="1.1" xmlns="http://www.w3.org/2000/svg" xmlns:xlink="http://www.w3.org/1999/xlink">
    <!-- Generator: Sketch 50.2 (55047) - http://www.bohemiancoding.com/sketch -->
    <desc>Created with Sketch.</desc>
    <defs></defs>
    <g id="Page-1" stroke="none" stroke-width="1" fill="none" fill-rule="evenodd">
        <g id="" transform="translate(-22.000000, -172.000000)" fill="#FFFFFF" fill-rule="nonzero">
            <g id="left" transform="translate(-2.000000, 3.000000)">
                <g id="menu" transform="translate(0.000000, 151.000000)">
                    <g id="li-r" transform="translate(1.000000, 0.000000)">
                        <g id="building" transform="translate(23.219731, 18.000000)">
                            <path d="M15.396861,16.875 L14.690583,16.875 L14.690583,0.84375 C14.690583,0.377753906 14.3111351,0 13.8430493,0 L1.97757848,0 C1.50949271,0 1.13004484,0.377753906 1.13004484,0.84375 L1.13004484,16.875 L0.423766816,16.875 C0.189741592,16.875 0,17.0638945 0,17.296875 L0,18 L15.8206278,18 L15.8206278,17.296875 C15.8206278,17.0638945 15.6308862,16.875 15.396861,16.875 Z M4.52017937,2.671875 C4.52017937,2.43889453 4.70992096,2.25 4.94394619,2.25 L6.35650224,2.25 C6.59052747,2.25 6.78026906,2.43889453 6.78026906,2.671875 L6.78026906,4.078125 C6.78026906,4.31110547 6.59052747,4.5 6.35650224,4.5 L4.94394619,4.5 C4.70992096,4.5 4.52017937,4.31110547 4.52017937,4.078125 L4.52017937,2.671875 Z M4.52017937,6.046875 C4.52017937,5.81389453 4.70992096,5.625 4.94394619,5.625 L6.35650224,5.625 C6.59052747,5.625 6.78026906,5.81389453 6.78026906,6.046875 L6.78026906,7.453125 C6.78026906,7.68610547 6.59052747,7.875 6.35650224,7.875 L4.94394619,7.875 C4.70992096,7.875 4.52017937,7.68610547 4.52017937,7.453125 L4.52017937,6.046875 Z M6.35650224,11.25 L4.94394619,11.25 C4.70992096,11.25 4.52017937,11.0611055 4.52017937,10.828125 L4.52017937,9.421875 C4.52017937,9.18889453 4.70992096,9 4.94394619,9 L6.35650224,9 C6.59052747,9 6.78026906,9.18889453 6.78026906,9.421875 L6.78026906,10.828125 C6.78026906,11.0611055 6.59052747,11.25 6.35650224,11.25 Z M9.04035874,16.875 L6.78026906,16.875 L6.78026906,13.921875 C6.78026906,13.6888945 6.97001065,13.5 7.20403587,13.5 L8.61659193,13.5 C8.85061715,13.5 9.04035874,13.6888945 9.04035874,13.921875 L9.04035874,16.875 Z M11.3004484,10.828125 C11.3004484,11.0611055 11.1107068,11.25 10.8766816,11.25 L9.46412556,11.25 C9.23010034,11.25 9.04035874,11.0611055 9.04035874,10.828125 L9.04035874,9.421875 C9.04035874,9.18889453 9.23010034,9 9.46412556,9 L10.8766816,9 C11.1107068,9 11.3004484,9.18889453 11.3004484,9.421875 L11.3004484,10.828125 Z M11.3004484,7.453125 C11.3004484,7.68610547 11.1107068,7.875 10.8766816,7.875 L9.46412556,7.875 C9.23010034,7.875 9.04035874,7.68610547 9.04035874,7.453125 L9.04035874,6.046875 C9.04035874,5.81389453 9.23010034,5.625 9.46412556,5.625 L10.8766816,5.625 C11.1107068,5.625 11.3004484,5.81389453 11.3004484,6.046875 L11.3004484,7.453125 Z M11.3004484,4.078125 C11.3004484,4.31110547 11.1107068,4.5 10.8766816,4.5 L9.46412556,4.5 C9.23010034,4.5 9.04035874,4.31110547 9.04035874,4.078125 L9.04035874,2.671875 C9.04035874,2.43889453 9.23010034,2.25 9.46412556,2.25 L10.8766816,2.25 C11.1107068,2.25 11.3004484,2.43889453 11.3004484,2.671875 L11.3004484,4.078125 Z" id="Shape"></path>
                        </g>
                    </g>
                </g>
            </g>
        </g>
    </g>
</svg>