
<svg width="18px" height="18px" viewBox="0 0 18 18" version="1.1" xmlns="http://www.w3.org/2000/svg" xmlns:xlink="http://www.w3.org/1999/xlink">
    <!-- Generator: Sketch 50.2 (55047) - http://www.bohemiancoding.com/sketch -->
    <desc>Created with Sketch.</desc>
    <defs></defs>
    <g id="Page-1" stroke="none" stroke-width="1" fill="none" fill-rule="evenodd">
        <g id="" transform="translate(-20.000000, -469.000000)" fill="#FFFFFF" fill-rule="nonzero">
            <g id="left" transform="translate(-2.000000, 3.000000)">
                <g id="menu" transform="translate(0.000000, 151.000000)">
                    <g id="li-r" transform="translate(1.000000, 296.000000)">
                        <g id="问号" transform="translate(21.000000, 19.000000)">
                            <path d="M9,9.08364293e-16 C4.02943725,6.05576195e-16 6.05576195e-16,4.02943725 0,9 C-3.02788098e-16,13.9705627 4.02943725,18 9,18 C13.9705627,18 18,13.9705627 18,9 C18,6.61305159 17.0517884,4.32386638 15.363961,2.63603897 C13.6761336,0.948211563 11.3869484,6.05576195e-16 9,9.08364293e-16 Z M9.79950018,14.505259 C9.59364812,14.6995408 9.32077054,14.8069024 9.0377215,14.8049752 C8.75158311,14.8105369 8.47587867,14.6975433 8.27594282,14.4927708 C8.07309981,14.296679 7.96014494,14.0255873 7.96373844,13.7434803 C7.95211991,13.4598801 8.06638879,13.1856348 8.27594282,12.9941898 C8.47799104,12.7939963 8.75342821,12.6856276 9.0377215,12.6944736 C9.32604596,12.6836472 9.60610037,12.7920554 9.81198836,12.9941898 C10.0215424,13.1856348 10.1358113,13.4598801 10.1241927,13.7434803 C10.128468,14.0355163 10.0107984,14.316113 9.79950018,14.5177472 L9.79950018,14.505259 Z M12.1372119,7.79383051 C11.7023977,8.24164065 11.2426816,8.66457952 10.7602519,9.06063367 C10.4771133,9.28838884 10.2468904,9.5749929 10.0855416,9.90057924 C9.90731819,10.2300929 9.81720175,10.6000446 9.82391916,10.974608 L9.82391916,11.25 L8.10271922,11.25 L8.10271922,10.974608 C8.08341526,10.4411038 8.19697405,9.91116284 8.43318961,9.43241286 C8.92343782,8.65821685 9.53746627,7.96976071 10.2507767,7.39451213 L10.5261687,7.09158093 C10.807825,6.7599719 10.9680956,6.34229683 10.9805655,5.90739537 C10.972499,5.43417866 10.7855509,4.9815674 10.4573207,4.64059221 C10.0823511,4.30041899 9.58562328,4.12656427 9.08036079,4.15865623 C8.46730996,4.10739796 7.87040622,4.37211179 7.49685684,4.86090581 C7.17836031,5.35097684 7.02404189,5.92967091 7.05622965,6.51325775 L5.4038777,6.51325775 C5.35771208,5.49535185 5.72523292,4.50205227 6.42282807,3.75933784 C7.18097941,3.0404057 8.20249268,2.66668133 9.24559598,2.72661788 C10.1771778,2.6469233 11.1038087,2.9278699 11.8342807,3.51148505 C12.4976823,4.09771104 12.8576027,4.95442298 12.8119223,5.83854738 C12.8174701,6.55252597 12.5794799,7.24706892 12.1372119,7.80760011 L12.1372119,7.79383051 Z" id="Shape"></path>
                        </g>
                    </g>
                </g>
            </g>
        </g>
    </g>
</svg>