
<svg width="18px" height="18px" viewBox="0 0 18 18" version="1.1" xmlns="http://www.w3.org/2000/svg" xmlns:xlink="http://www.w3.org/1999/xlink">
    <!-- Generator: Sketch 50.2 (55047) - http://www.bohemiancoding.com/sketch -->
    <desc>Created with Sketch.</desc>
    <defs></defs>
    <g id="Page-1" stroke="none" stroke-width="1" fill="none" fill-rule="evenodd">
        <g id="" transform="translate(-21.000000, -409.000000)" fill="#FFFFFF" fill-rule="nonzero">
            <g id="left" transform="translate(-2.000000, 3.000000)">
                <g id="menu" transform="translate(0.000000, 151.000000)">
                    <g id="li-r" transform="translate(1.000000, 236.000000)">
                        <g id="通用-失败提示图标" transform="translate(22.000000, 19.000000)">
                            <path d="M12.6890587,5.32783588 C12.3566122,4.99667401 11.8189711,4.99667401 11.4865245,5.32783588 L8.99155271,7.82280773 L6.59613837,5.42739339 C6.27356498,5.10482 5.75057017,5.10482 5.42799678,5.42739339 C5.10542339,5.74996679 5.10542339,6.27296159 5.42799678,6.59553498 L7.82341109,8.99094932 L5.32843927,11.4859212 C5.01842698,11.8214917 5.02879164,12.3420028 5.35191696,12.664966 C5.67504228,12.9879292 6.19555855,12.9980326 6.53097345,12.687852 L9.02594529,10.1934835 L11.4352373,12.6009654 C11.6436902,12.809526 11.9475743,12.8910357 12.2324195,12.8147906 C12.5172647,12.7385454 12.7397962,12.5161289 12.8161886,12.2313232 C12.892581,11.9465174 12.8112284,11.6425912 12.6027755,11.4340306 L10.1940869,9.02534191 L12.6890587,6.53037006 C13.0203138,6.19851164 13.0203138,5.66029766 12.6890587,5.32783588 M9,18 C4.02996781,18 0,13.9700322 0,9 C3.09821892e-16,4.02876106 4.02996781,0 9,0 C13.9706356,0 18,4.02876106 18,9 C18,13.9700322 13.9706356,18 9,18" id="Shape"></path>
                        </g>
                    </g>
                </g>
            </g>
        </g>
    </g>
</svg>