
<svg width="24px" height="24px" viewBox="0 0 24 24" version="1.1" xmlns="http://www.w3.org/2000/svg" xmlns:xlink="http://www.w3.org/1999/xlink">
    <!-- Generator: Sketch 50.2 (55047) - http://www.bohemiancoding.com/sketch -->
    <desc>Created with Sketch.</desc>
    <defs>
        <filter x="-2.5%" y="-3.4%" width="105.0%" height="109.0%" filterUnits="objectBoundingBox" id="filter-1">
            <feOffset dx="0" dy="2" in="SourceAlpha" result="shadowOffsetOuter1"></feOffset>
            <feGaussianBlur stdDeviation="2" in="shadowOffsetOuter1" result="shadowBlurOuter1"></feGaussianBlur>
            <feColorMatrix values="0 0 0 0 0   0 0 0 0 0   0 0 0 0 0  0 0 0 0.05 0" type="matrix" in="shadowBlurOuter1" result="shadowMatrixOuter1"></feColorMatrix>
            <feMerge>
                <feMergeNode in="shadowMatrixOuter1"></feMergeNode>
                <feMergeNode in="SourceGraphic"></feMergeNode>
            </feMerge>
        </filter>
    </defs>
    <g id="Page-1" stroke="none" stroke-width="1" fill="none" fill-rule="evenodd">
        <g id="预约单-小组件" transform="translate(-195.000000, -498.000000)" fill="#4A4A4A" fill-rule="nonzero">
            <g id="top" transform="translate(164.000000, 301.000000)">
                <g id="person" filter="url(#filter-1)" transform="translate(0.000000, 63.000000)">
                    <g id="pwd" transform="translate(14.000000, 125.000000)">
                        <g id="钥匙-(1)" transform="translate(21.000000, 11.000000)">
                            <path d="M10.957,0 C9.34832218,0.00230473051 7.83698734,0.770897794 6.88755752,2.06952502 C5.9381277,3.36815224 5.664209,5.04142354 6.15,6.575 L0.102,12.623 C0.0366695062,12.688602 -6.96126886e-06,12.7774166 0,12.87 L0,15.652 C0,15.844 0.156,16 0.348,16 L2.783,16 C2.875,16 2.963,15.963 3.029,15.898 L3.729,15.198 C3.79417877,15.1327052 3.83085175,15.0442586 3.831,14.952 L3.831,13.845 L4.938,13.845 C5.03029534,13.845 5.1188105,13.8083358 5.18407316,13.7430732 C5.24933582,13.6778105 5.286,13.5892953 5.286,13.497 L5.286,12.522 L6.261,12.522 C6.353,12.522 6.441,12.485 6.507,12.42 L9.167,9.76 C10.7170786,10.3449604 12.4554922,10.1323861 13.8189474,9.19115702 C15.1824026,8.24992794 15.997453,6.69977875 16,5.043 C15.9961442,2.25942668 13.7405733,0.00385575172 10.957,0 Z M7.437,7.765 L1.514,13.688 C1.47117858,13.7369023 1.40467027,13.7578592 1.34154936,13.7423395 C1.27842845,13.7268197 1.22922103,13.6774115 1.21395854,13.6142279 C1.19869604,13.5510443 1.21992365,13.4846219 1.269,13.442 L7.192,7.52 C7.26039098,7.45486574 7.36825411,7.45618095 7.43503658,7.52296342 C7.50181905,7.58974589 7.50313426,7.69760902 7.438,7.766 L7.437,7.765 Z M13.46,7.213 L13.214,7.459 L8.54,2.786 L8.786,2.54 C9.40435256,1.91874368 10.2454651,1.57056051 11.122,1.573 C12.005,1.573 12.835,1.916 13.459,2.54 C14.7473793,3.83125519 14.7473793,5.92174481 13.459,7.213 L13.46,7.213 Z" id="Shape"></path>
                        </g>
                    </g>
                </g>
            </g>
        </g>
    </g>
</svg>