
<svg width="17px" height="18px" viewBox="0 0 17 18" version="1.1" xmlns="http://www.w3.org/2000/svg" xmlns:xlink="http://www.w3.org/1999/xlink">
    <!-- Generator: Sketch 50.2 (55047) - http://www.bohemiancoding.com/sketch -->
    <desc>Created with Sketch.</desc>
    <defs></defs>
    <g id="Page-1" stroke="none" stroke-width="1" fill="none" fill-rule="evenodd">
        <g id="" transform="translate(-22.000000, -229.000000)" fill="#FFFFFF" fill-rule="nonzero">
            <g id="left" transform="translate(-2.000000, 3.000000)">
                <g id="menu" transform="translate(0.000000, 151.000000)">
                    <g id="li-r" transform="translate(1.000000, 56.000000)">
                        <g id="订单" transform="translate(23.000000, 19.000000)">
                            <path d="M14.7800586,0 L5.17302052,0 C4.36011729,0 3.69501465,0.675000002 3.69501467,1.5 L3.69501467,2.25000001 L12.5630498,2.25000001 C13.3759531,2.25000001 14.0410557,2.92500002 14.0410557,3.75 L14.0410557,14.25 L14.7800586,14.25 C15.5929619,14.25 16.2580645,13.575 16.2580645,12.75 L16.2580645,1.5 C16.2580645,0.675000002 15.5929619,0 14.7800586,0 Z M12.5630498,5.25 C12.5630498,4.425 11.8979472,3.75 11.085044,3.75 L1.47800587,3.75 C0.665102643,3.75 0,4.425 0,5.25 L0,16.5 C0,17.325 0.665102643,18 1.47800587,18 L11.085044,18 C11.8979472,18 12.5630499,17.325 12.5630498,16.5 L12.5630498,5.25 Z M5.91202346,7.875 C5.91202346,8.10000001 5.76422288,8.25000001 5.54252199,8.25000001 L2.58651027,8.25000001 C2.36480938,8.25000001 2.2170088,8.10000001 2.2170088,7.875 L2.2170088,7.12500001 C2.2170088,6.9 2.36480938,6.75 2.58651027,6.75 L5.54252199,6.75 C5.76422288,6.75 5.91202346,6.9 5.91202346,7.12500001 L5.91202346,7.875 Z M8.86803518,13.875 C8.86803518,14.1 8.7202346,14.25 8.49853373,14.25 L2.58651027,14.25 C2.36480938,14.25 2.2170088,14.1 2.2170088,13.875 L2.2170088,13.125 C2.2170088,12.9 2.36480938,12.75 2.58651027,12.75 L8.49853373,12.75 C8.72023462,12.75 8.8680352,12.9 8.86803518,13.125 L8.86803518,13.875 Z M10.3460411,10.875 C10.3460411,11.1 10.1982405,11.25 9.97653958,11.25 L2.58651027,11.25 C2.36480938,11.25 2.2170088,11.1 2.2170088,10.875 L2.2170088,10.125 C2.2170088,9.89999999 2.36480938,9.74999999 2.58651027,9.74999999 L9.97653958,9.74999999 C10.1982405,9.74999999 10.3460411,9.89999999 10.3460411,10.125 L10.3460411,10.875 Z" id="Shape"></path>
                        </g>
                    </g>
                </g>
            </g>
        </g>
    </g>
</svg>