
<svg width="21px" height="24px" viewBox="0 0 21 24" version="1.1" xmlns="http://www.w3.org/2000/svg" xmlns:xlink="http://www.w3.org/1999/xlink">
    <!-- Generator: Sketch 50.2 (55047) - http://www.bohemiancoding.com/sketch -->
    <desc>Created with Sketch.</desc>
    <defs></defs>
    <g id="Page-1" stroke="none" stroke-width="1" fill="none" fill-rule="evenodd">
        <g id="预约单-派车成功" transform="translate(-1228.000000, -41.000000)" fill="#4A4A4A" fill-rule="nonzero">
            <g id="top" transform="translate(1125.000000, 25.000000)">
                <g id="icon2" transform="translate(83.000000, 0.000000)">
                    <g id="账户-#ffffff-&amp;-20px" transform="translate(20.000000, 16.000000)">
                        <path d="M9.96460538,12.6428571 C13.4005865,12.6428571 16.1941094,9.80892857 16.1941094,6.32142857 C16.1941094,2.83660714 13.4005865,0 9.96460538,0 C6.52862425,0 3.73510136,2.83660714 3.73510136,6.32142857 C3.73510136,9.80625 6.5312253,12.6428571 9.96460538,12.6428571 Z M12.5318373,13.2508929 L7.86556165,13.2508929 C3.52701772,13.2508929 0,16.8294643 0,21.2276786 L0,21.7017857 C0,24 3.47239577,24 7.86556165,24 L12.5344384,24 C16.7559352,24 20.4,24 20.4,21.7017857 L20.4,21.2276786 C20.397399,16.8294643 16.8703812,13.2508929 12.5318373,13.2508929 Z" id="Shape"></path>
                    </g>
                </g>
            </g>
        </g>
    </g>
</svg>