
<svg width="20px" height="20px" viewBox="0 0 20 20" version="1.1" xmlns="http://www.w3.org/2000/svg" xmlns:xlink="http://www.w3.org/1999/xlink">
    <!-- Generator: Sketch 50.2 (55047) - http://www.bohemiancoding.com/sketch -->
    <desc>Created with Sketch.</desc>
    <defs></defs>
    <g id="Page-1" stroke="none" stroke-width="1" fill="none" fill-rule="evenodd">
        <g id="预约单-弹窗" transform="translate(-1029.000000, -387.000000)" fill="#E5E5E5" fill-rule="nonzero">
            <g id="指定司机" transform="translate(85.000000, 178.000000)">
                <g id="if1" transform="translate(656.000000, 0.000000)">
                    <g id="Group-6" transform="translate(17.000000, 98.000000)">
                        <g id="nb" transform="translate(102.000000, 102.000000)">
                            <g id="正确" transform="translate(169.000000, 9.000000)">
                                <path d="M10.0001228,0 C4.47722302,0 0,4.47724535 0,10.0001228 C0,15.522777 4.47722302,20 10.0001228,20 C15.522777,20 20,15.522777 20,10.0001228 C20,4.47724535 15.522777,2.22117239e-15 10.0001228,0 Z M16.124112,7.13916493 L9.12405508,14.1392665 C9.04079444,14.2226561 8.94217769,14.2891386 8.83364761,14.3350448 C8.7210821,14.3825759 8.60011774,14.4070178 8.47792861,14.406921 C8.22574793,14.406921 7.99748132,14.3046108 7.83198077,14.1392889 L3.87622292,10.1823922 C3.79281523,10.0995009 3.72630182,10.0011982 3.68037762,9.8929449 C3.63283399,9.78038562 3.6084134,9.65941414 3.60856843,9.5372259 C3.60856843,9.0329092 4.01747446,8.62451672 4.52127761,8.62451672 C4.77345828,8.62451672 5.00183654,8.72671532 5.16718079,8.89221587 L8.47792861,12.2020482 L14.8330872,5.84724692 C14.9163814,5.76417095 15.0149063,5.69792674 15.1232713,5.65213848 C15.2358772,5.60475079 15.3568421,5.58042418 15.4790127,5.58059723 C15.9825925,5.58059723 16.3916995,5.98959258 16.3916995,6.49303846 C16.3916772,6.74544243 16.2895009,6.97382068 16.124112,7.13916493 Z" id="Shape"></path>
                            </g>
                        </g>
                    </g>
                </g>
            </g>
        </g>
    </g>
</svg>